<svg xmlns="http://www.w3.org/2000/svg" version="1.1" xmlns:xlink="http://www.w3.org/1999/xlink" width="1500" height="1500" viewBox="0 0 1500 1500"><rect width="1500" height="1500" x="0" y="0" id="background" stroke="transparent" fill="#828282"></rect><svg xml:space="preserve" width="1000" height="1000" data-version="2" data-id="lg_3iYOv4E9dMpdAOCeu6" viewBox="0 0 565 108" x="250" y="250"><rect width="100%" height="100%" fill="transparent"></rect><path fill="#080808" d="M162.565 51.652v-39.79h6.15v16.94h17.46v-16.94h6.14v39.79h-6.14v-17.81h-17.4v17.81Z"></path><rect width="29.75" height="39.79" x="-14.88" y="-19.89" fill="none" rx="0" ry="0" transform="translate(177.94 32.26)"></rect><path fill="#080808" d="M202.875 51.652v-39.79h26.33l-.75 4.87h-19.43v12.18h17.57v4.88h-17.57v12.99h19.78l.81 4.87Z"></path><rect width="26.74" height="39.79" x="-13.37" y="-19.89" fill="none" rx="0" ry="0" transform="translate(216.75 32.26)"></rect><path fill="#080808" d="M265.515 51.942q-1.45 0-2.75-.58-1.31-.58-2.15-2.2-.84-1.63-.84-4.7 0-2.9-.61-4.76-.61-1.85-1.65-2.93-1.05-1.07-2.21-1.53-1.16-.47-2.26-.47h-9.51v16.88h-6.15v-39.79h18.62q2.84 0 5.22 1.22t3.88 3.42q1.51 2.21 1.51 5.22 0 2.38-.95 4.41-.96 2.03-2.56 3.54-1.59 1.51-3.51 2.26v.29q.58.17 1.6.73 1.01.55 2.09 1.65 1.07 1.1 1.82 3.01.76 1.92.76 4.76 0 2.09.2 3.45.2 1.36.55 2.15.35.78.93 1.22.58.43 1.28.72v1.51q-.53.23-1.42.38-.9.14-1.89.14m-21.98-22.04h10.79q1.74 0 3.1-1.07 1.36-1.08 2.2-2.79.84-1.71.84-3.62 0-2.73-1.71-4.21t-4.38-1.48h-10.84Z"></path><rect width="31.44" height="40.08" x="-15.72" y="-20.04" fill="none" rx="0" ry="0" transform="translate(253.6 32.4)"></rect><path fill="#080808" d="M190.695 100.442q-1.45 0-2.75-.58-1.31-.58-2.15-2.2-.84-1.63-.84-4.7 0-2.9-.61-4.76-.61-1.85-1.65-2.93-1.05-1.07-2.21-1.53-1.16-.47-2.26-.47h-9.51v16.88h-6.15v-39.79h18.62q2.84 0 5.22 1.22t3.88 3.42q1.51 2.21 1.51 5.22 0 2.38-.95 4.41-.96 2.03-2.56 3.54-1.59 1.51-3.51 2.26v.29q.58.17 1.6.72 1.01.56 2.09 1.66 1.07 1.1 1.82 3.01.76 1.92.76 4.76 0 2.09.2 3.45.2 1.36.55 2.15.35.78.93 1.21.58.44 1.28.73v1.51q-.53.23-1.42.37-.9.15-1.89.15m-21.98-22.04h10.79q1.74 0 3.1-1.07 1.36-1.08 2.2-2.79.84-1.71.84-3.62 0-2.73-1.71-4.21t-4.38-1.48h-10.84Z"></path><rect width="31.44" height="40.08" x="-15.72" y="-20.04" fill="none" rx="0" ry="0" transform="translate(178.78 80.9)"></rect><path fill="#080808" d="M201.655 100.152v-39.79h26.33l-.75 4.87h-19.43v12.18h17.57v4.88h-17.57v12.99h19.78l.81 4.87Z"></path><rect width="26.74" height="39.79" x="-13.37" y="-19.89" fill="none" rx="0" ry="0" transform="translate(215.53 80.76)"></rect><path fill="#080808" d="M243.935 100.732q-3.3 0-5.88-1.22t-4.06-3.59q-1.48-2.38-1.48-5.8v-2.03h5.68v1.68q0 3.19 1.71 4.64 1.71 1.45 4.32 1.45 1.74 0 3.14-.64 1.39-.64 2.2-2.03.81-1.39.81-3.65v-29.18h6.21v29.06q0 3.6-1.6 6.15-1.59 2.55-4.26 3.85-2.67 1.31-6.03 1.31Z"></path><rect width="24.07" height="40.37" x="-12.04" y="-20.18" fill="none" rx="0" ry="0" transform="translate(245.05 81.05)"></rect><path fill="#080808" d="M280.475 100.732q-4.29 0-7.48-1.65-3.19-1.66-4.9-4.64-1.71-2.99-1.71-6.99v-27.09h6.15v26.91q0 3.83 2.32 6.21t6.32 2.38q4.18 0 6.44-2.41 2.26-2.41 2.26-6.18v-26.91h6.21v27.09q0 3.94-1.86 6.96-1.86 3.01-5.1 4.67-3.25 1.65-7.54 1.65Z"></path><rect width="29.7" height="40.37" x="-14.85" y="-20.18" fill="none" rx="0" ry="0" transform="translate(281.74 81.05)"></rect><path fill="#080808" d="m315.685 100.152-14.04-39.79h6.5l11.02 31.44h.29l10.96-31.44h5.98l-14.04 39.79Z"></path><rect width="34.75" height="39.79" x="-17.38" y="-19.89" fill="none" rx="0" ry="0" transform="translate(319.52 80.76)"></rect><path fill="#080808" d="M342.305 100.152v-39.79h26.33l-.75 4.87h-19.43v12.18h17.57v4.88h-17.57v12.99h19.78l.81 4.87Z"></path><rect width="26.74" height="39.79" x="-13.37" y="-19.89" fill="none" rx="0" ry="0" transform="translate(356.18 80.76)"></rect><path fill="#080808" d="M376.815 100.152v-39.79h5.16l16.53 24.94 2.27 3.77.23-.06v-28.65h5.57v39.79h-5.34l-16.99-25.75-1.69-2.84-.17.05v28.54Z"></path><rect width="29.76" height="39.79" x="-14.88" y="-19.89" fill="none" rx="0" ry="0" transform="translate(392.2 80.76)"></rect><path fill="#080808" d="m412.085 100.152 15.42-39.79h6.96l15.37 39.79h-6.49l-3.48-8.93h-18.21l-3.54 8.93Zm11.25-13.63h14.79l-7.25-19.2h-.23Z"></path><rect width="37.75" height="39.79" x="-18.88" y="-19.89" fill="none" rx="0" ry="0" transform="translate(431.46 80.76)"></rect><path fill="#080808" d="M462.015 100.152v-34.92h-12.23v-4.87h30.68v4.87h-12.24v34.92Z"></path><rect width="30.68" height="39.79" x="-15.34" y="-19.89" fill="none" rx="0" ry="0" transform="translate(465.63 80.76)"></rect><path fill="#080808" d="M501.285 100.732q-3.31 0-6.23-1.02-2.93-1.01-5.14-3.27-2.2-2.26-3.45-5.86-1.25-3.6-1.25-8.82v-3.01q0-5.16 1.28-8.79 1.28-3.62 3.51-5.86 2.23-2.23 5.13-3.25 2.9-1.01 6.15-1.01h1.16q3.36 0 6.26 1.01 2.9 1.02 5.11 3.25 2.2 2.24 3.45 5.86 1.25 3.63 1.25 8.79v3.01q0 5.22-1.28 8.85-1.28 3.62-3.51 5.86-2.23 2.23-5.13 3.24-2.9 1.02-6.15 1.02Zm.58-4.87q2.15 0 3.97-.61 1.83-.61 3.25-2.06 1.42-1.45 2.21-3.89.78-2.43.78-6.14v-5.69q0-3.71-.78-6.2-.79-2.5-2.21-3.92t-3.25-2.03q-1.82-.61-3.97-.61-2.09 0-3.94.61-1.86.61-3.28 2.03-1.42 1.42-2.2 3.89-.79 2.46-.79 6.17v5.69q0 3.71.79 6.17.78 2.47 2.2 3.92 1.42 1.45 3.25 2.06 1.82.61 3.97.61"></path><rect width="33.3" height="40.89" x="-16.65" y="-20.45" fill="none" rx="0" ry="0" transform="translate(502.37 80.79)"></rect><path fill="#080808" d="M555.345 100.442q-1.45 0-2.76-.58-1.3-.58-2.14-2.2-.85-1.63-.85-4.7 0-2.9-.6-4.76-.61-1.85-1.66-2.93-1.04-1.07-2.2-1.53-1.16-.47-2.26-.47h-9.52v16.88h-6.14v-39.79h18.61q2.85 0 5.22 1.22 2.38 1.22 3.89 3.42 1.51 2.21 1.51 5.22 0 2.38-.96 4.41-.96 2.03-2.55 3.54-1.6 1.51-3.51 2.26v.29q.58.17 1.6.72 1.01.56 2.08 1.66 1.08 1.1 1.83 3.01.75 1.92.75 4.76 0 2.09.21 3.45.2 1.36.55 2.15.35.78.93 1.21.58.44 1.27.73v1.51q-.52.23-1.42.37-.9.15-1.88.15m-21.99-22.04h10.79q1.74 0 3.11-1.07 1.36-1.08 2.2-2.79.84-1.71.84-3.62 0-2.73-1.71-4.21t-4.38-1.48h-10.85Z"></path><rect width="31.43" height="40.08" x="-15.71" y="-20.04" fill="none" rx="0" ry="0" transform="translate(543.43 80.9)"></rect><path fill="#080808" d="M61.046 4.892c6.461 5.895 11.371 11.578 16.267 18.832a1.543 1.543 0 0 0 2.125.415 1.532 1.532 0 0 0 .417-2.129 138.506 138.506 0 0 0-1.615-2.326c3.135-4.354 3.02-10.43-.643-14.67C73.84.662 67.624-.282 62.801 2.438c-.604-.33-1.37-.245-1.855.288a1.533 1.533 0 0 0 .1 2.165m5.611 19.886A9.901 9.901 0 0 0 74.1 21.41c-3.931-5.448-8.004-10.033-13.068-14.744a9.931 9.931 0 0 0 5.626 18.112m61.171 72.977L99.902 69.829a4.57 4.57 0 0 0-6.464 0L80.612 82.655 60.359 65.956a5.175 5.175 0 0 0-.345-3.33L53.51 48.68l8.483-11.724a5.224 5.224 0 0 0-1.17-7.296c-.025-.017-.052-.026-.076-.045L46.65 13.104H17.11V30.29l-7.48-6.17a2.613 2.613 0 0 0-3.324 4.03l10.804 8.91v9.028l-3.048 3.402v24.576l-7.29 25.086a5.221 5.221 0 0 0 5.019 6.683 5.226 5.226 0 0 0 5.013-3.768l7.497-25.799a5.176 5.176 0 0 0 .183-1.459h.023V54.22l.78-.497 13.866 16.942-15.287 27.4a5.224 5.224 0 1 0 9.124 5.09l17.021-30.504a5.221 5.221 0 0 0-.526-5.849l.007-.005-7.639-9.33 6.865 5.66 1.826 3.914a5.224 5.224 0 0 0 4.737 3.018c.51 0 1.022-.106 1.527-.262l20.09 16.57-3.431 3.43-5.64-5.64a4.57 4.57 0 0 0-6.465 0L47.488 98.033a4.57 4.57 0 0 0 3.231 7.803h27.75a.093.093 0 0 1 .027 0h46.377a4.57 4.57 0 0 0 2.955-8.08M27.558 23.553h9.733l-9.733 10.868zm16.03 28.572-6.896-5.688 10.312-6.588-5.558 7.682z"></path></svg></svg>